PathFileType	4	(X/Y/Z)	./resultDataOpenSim/trcMotMarkerGrf/sub06/qtm-05-02.trc
DataRate	CameraRate	NumFrames	NumMarkers	Units	OrigDataRate	OrigDataStartFrame	OrigNumFrames
250.000000	250.000000	5	24	m	250.000000	137	545
Frame#	Time	L.Toe.Tip			R.Toe.Tip			L.Ankle.Lat			R.Ankle.Lat			L.Ankle.Med			R.Ankle.Med			L.Heel			R.Heel			L.Knee.Lat			R.Knee.Lat			L.Knee.Med			R.Knee.Med			L.Thigh.Upper			R.Thigh.Upper			L.ASIS			R.ASIS			V.Sacral			L.Acromium			R.Acromium			C7			L.Elbow			R.Elbow			L.Wrist.Lat			R.Wrist.Lat
		X1	Y1	Z1	X2	Y2	Z2	X3	Y3	Z3	X4	Y4	Z4	X5	Y5	Z5	X6	Y6	Z6	X7	Y7	Z7	X8	Y8	Z8	X9	Y9	Z9	X10	Y10	Z10	X11	Y11	Z11	X12	Y12	Z12	X13	Y13	Z13	X14	Y14	Z14	X15	Y15	Z15	X16	Y16	Z16	X17	Y17	Z17	X18	Y18	Z18	X19	Y19	Z19	X20	Y20	Z20	X21	Y21	Z21	X22	Y22	Z22	X23	Y23	Z23	X24	Y24	Z24

137	0.544	-0.10080951	0.091778359	-0.035555099	-0.76626396	0.036104392	0.12673895	-0.23309518	0.11461246	-0.061224302	-0.8998356	0.064764149	0.14019121	-0.23479114	0.1329044	0.023239982	-0.8743505	0.080754434	0.054217946	-0.29273174	0.076998841	-0.010657402	-0.95361498	0.041948124	0.075122386	-0.37713606	0.45555427	-0.059294591	-0.73336372	0.41998483	0.17478269	-0.39290023	0.44153731	0.064866129	-0.76389085	0.4206646	0.044432938	-0.57372926	0.79292947	-0.1068233	-0.64598583	0.76958949	0.23296054	-0.51564181	0.83763647	-0.051280614	-0.53706553	0.82479357	0.19762559	-0.71396183	0.89975479	0.071841011	-0.62698353	1.3100867	-0.12843034	-0.60357164	1.310663	0.23367508	-0.69736113	1.3398347	0.055191425	-0.72175112	1.0131359	-0.16133267	-0.64142873	0.99856959	0.32802209	-0.64739208	0.79213762	-0.23772575	-0.4318473	0.8631158	0.30774357
138	0.548	-0.089307923	0.092107686	-0.036154405	-0.76619565	0.036049978	0.12672093	-0.22182818	0.11444746	-0.061495702	-0.89956121	0.064947625	0.14014305	-0.22354996	0.13292639	0.022786327	-0.87372553	0.080820699	0.054077477	-0.28108995	0.076763793	-0.010703248	-0.95345127	0.042342179	0.074987601	-0.37008425	0.45306813	-0.058973009	-0.72961332	0.41863334	0.17474716	-0.38640816	0.43846033	0.065296722	-0.75946539	0.41952209	0.044321416	-0.56655797	0.78936304	-0.10675005	-0.64055937	0.7674859	0.23281273	-0.50832466	0.83425909	-0.050917265	-0.53129917	0.82250774	0.19810085	-0.70723687	0.89724832	0.071064126	-0.62077848	1.3071988	-0.12873541	-0.59811075	1.3080506	0.23382372	-0.69151552	1.3374443	0.054925565	-0.71623314	1.0102871	-0.16138014	-0.63444474	0.99559687	0.32831816	-0.64284549	0.78929142	-0.23807767	-0.42450372	0.86135909	0.30727832
139	0.552	-0.078232854	0.092085911	-0.036720424	-0.76612529	0.036001073	0.12669888	-0.21095642	0.1140743	-0.061728079	-0.89927651	0.065137988	0.14005255	-0.21256266	0.13278356	0.022489899	-0.8730583	0.080878685	0.053931746	-0.26985528	0.076350279	-0.010774207	-0.95327385	0.042757541	0.074832743	-0.36297748	0.45063247	-0.058668746	-0.72580285	0.41724955	0.17470847	-0.37986818	0.43544216	0.065650188	-0.75503939	0.41833448	0.044167591	-0.55932567	0.78585508	-0.10668174	-0.63506676	0.76536835	0.23265579	-0.50097839	0.8308753	-0.050566017	-0.52550521	0.82020789	0.19863637	-0.70070707	0.89479309	0.070192888	-0.6145548	1.3043241	-0.12901663	-0.5926539	1.3054366	0.23395076	-0.68566008	1.3350149	0.05466126	-0.71063713	1.0074355	-0.16137914	-0.62744147	0.99263205	0.32856006	-0.63822631	0.78644495	-0.23839514	-0.41717948	0.8595604	0.30680062
140	0.556	-0.067587492	0.091736684	-0.037221304	-0.76604782	0.035960377	0.12667273	-0.2004738	0.11345983	-0.061919191	-0.89896488	0.065348179	0.13992002	-0.20186035	0.13240626	0.022379967	-0.87239623	0.080915521	0.053771421	-0.2590576	0.075722224	-0.010825357	-0.95308664	0.043197804	0.074659689	-0.35574292	0.44827748	-0.058367864	-0.72193531	0.41583408	0.1746666	-0.37326614	0.43248569	0.065941207	-0.75053305	0.41710706	0.043982073	-0.55202735	0.78243202	-0.1066179	-0.62950716	0.76324137	0.23249136	-0.49358313	0.82749866	-0.050218404	-0.51966291	0.8179184	0.19917812	-0.69438963	0.89240593	0.069208412	-0.60848014	1.3014701	-0.12932043	-0.58718933	1.3028245	0.23404249	-0.67976139	1.3325435	0.054397043	-0.70495368	1.0046075	-0.16132518	-0.62040294	0.98968238	0.32873104	-0.63352168	0.78360492	-0.23868504	-0.40987286	0.85772768	0.30631313
141	0.56	-0.05737532	0.091083885	-0.037629892	-0.76595981	0.035925805	0.12664392	-0.19038434	0.11257648	-0.062074835	-0.89861608	0.065592718	0.13975606	-0.19153464	0.13173343	0.022406861	-0.87175013	0.080940062	0.05358635	-0.24872861	0.074850993	-0.010805785	-0.95288928	0.043680686	0.074458718	-0.34833925	0.44601457	-0.058068039	-0.718014	0.41438752	0.17462165	-0.36658703	0.42958714	0.066183565	-0.74591479	0.41584141	0.043765998	-0.54466514	0.77912258	-0.10654617	-0.62389028	0.76111607	0.23232842	-0.48613804	0.82413925	-0.04986728	-0.51374998	0.81565244	0.1996823	-0.68817396	0.890081	0.068039817	-0.60254898	1.2986399	-0.12964696	-0.58172092	1.3002171	0.23408721	-0.67377276	1.3300302	0.054134869	-0.69920399	1.0018296	-0.16125446	-0.61335882	0.98675392	0.32884323	-0.62872995	0.7807729	-0.23894854	-0.40257636	0.85586568	0.30581668
